<?xml version="1.0" encoding="UTF-8" standalone="no"?>
<!-- Created with Inkscape (http://www.inkscape.org/) -->

<svg
   xmlns:dc="http://purl.org/dc/elements/1.1/"
   xmlns:cc="http://creativecommons.org/ns#"
   xmlns:rdf="http://www.w3.org/1999/02/22-rdf-syntax-ns#"
   xmlns:svg="http://www.w3.org/2000/svg"
   xmlns="http://www.w3.org/2000/svg"
   xmlns:sodipodi="http://sodipodi.sourceforge.net/DTD/sodipodi-0.dtd"
   xmlns:inkscape="http://www.inkscape.org/namespaces/inkscape"
   id="svg2"
   version="1.1"
   inkscape:version="0.91 r13725"
   xml:space="preserve"
   width="1613.6586"
   height="299.31393"
   viewBox="0 0 1613.6586 299.31393"
   sodipodi:docname="logo.svg"><metadata
     id="metadata8"><rdf:RDF><cc:Work
         rdf:about=""><dc:format>image/svg+xml</dc:format><dc:type
           rdf:resource="http://purl.org/dc/dcmitype/StillImage" /><dc:title></dc:title></cc:Work></rdf:RDF></metadata><defs
     id="defs6"><clipPath
       clipPathUnits="userSpaceOnUse"
       id="clipPath30"><path
         d="m 7116.58,6263.46 -0.25,-0.34 c 42.27,-42.15 106.21,-106.08 106.21,-106.08 17.8,-17.81 37.14,-33.06 57.14,-46.58 1.29,-0.8 2.34,-1.97 3.38,-2.91 20.65,-13.49 42.49,-24.67 64.75,-34.01 1.07,-0.44 1.87,-1.14 3.03,-1.5 23.16,-9.32 47.04,-16.29 71.14,-21.2 0.47,0 0.69,-0.22 0.94,-0.22 122.71,-23.88 254.64,11.75 349.78,106.77 l 341.4,341.5 275.22,275.27 7.69,7.68 c 42.75,42.03 268.17,253.95 373.06,161.61 l 0.14,0.24 c -41.25,41.21 -102.51,102.48 -105.29,105.38 l -0.34,0.33 c -19.06,19.11 -39.74,35.87 -61.53,50.2 -2.58,1.63 -5.07,3.28 -7.65,4.92 -19.12,12.11 -39.24,22.33 -59.92,30.61 -11.45,4.58 -22.77,8.63 -34.54,12.13 -12.21,3.61 -24.88,6.76 -37.34,9.18 -124.13,24.13 -254.73,-12.01 -349.75,-107.04 l -530.14,-530 -86.4,-86.52 -12.71,-12.7 c -53.78,-51.92 -267.07,-245.79 -368.02,-156.72 z"
         id="path32"
         inkscape:connector-curvature="0" /></clipPath><linearGradient
       x1="0"
       y1="0"
       x2="1"
       y2="0"
       gradientUnits="userSpaceOnUse"
       gradientTransform="matrix(-1167.27,-1167.27,-1167.27,1167.27,8526.93,7187.06)"
       spreadMethod="pad"
       id="linearGradient34"><stop
         style="stop-opacity:1;stop-color:#69afce"
         offset="0"
         id="stop36" /><stop
         style="stop-opacity:1;stop-color:#2e3e9c"
         offset="0.994892"
         id="stop38" /><stop
         style="stop-opacity:1;stop-color:#2e3e9c"
         offset="1"
         id="stop40" /></linearGradient><clipPath
       clipPathUnits="userSpaceOnUse"
       id="clipPath48"><path
         d="m 8118.54,4883.49 -529.86,530.01 -86.5,86.51 c 0,0 -264.79,271.64 -381.01,169.3 l -0.1,0.23 c 42.15,42.27 106.19,106.07 106.19,106.07 152.05,151.72 398.08,151.61 550.05,-0.22 l 341.23,-341.4 275.51,-275.37 275.27,-275.26 c -152.2,-152.05 -398.68,-151.95 -550.78,0.13 z"
         id="path50"
         inkscape:connector-curvature="0" /></clipPath><linearGradient
       x1="0"
       y1="0"
       x2="1"
       y2="0"
       gradientUnits="userSpaceOnUse"
       gradientTransform="matrix(-1167.23,1167.23,1167.23,1167.23,8478.78,4692.82)"
       spreadMethod="pad"
       id="linearGradient52"><stop
         style="stop-opacity:1;stop-color:#69afce"
         offset="0"
         id="stop54" /><stop
         style="stop-opacity:1;stop-color:#2e3e9c"
         offset="0.994892"
         id="stop56" /><stop
         style="stop-opacity:1;stop-color:#2e3e9c"
         offset="1"
         id="stop58" /></linearGradient><clipPath
       clipPathUnits="userSpaceOnUse"
       id="clipPath66"><path
         d="m 9199.96,5964.48 c -0.15,-0.24 -0.23,-0.35 -0.49,-0.59 L 8394.08,5158.5 c 0,0 -264.69,-271.52 -380.85,-169.42 l -4.06,3.69 c 42.29,-42.25 109.9,-109.87 110,-109.99 152.05,-151.59 398.22,-151.48 550.03,0.47 L 9750,5963.89 8664.43,7049.55 c -151.8,151.84 -398.07,151.95 -550.12,0.35 0,-0.11 -63.85,-63.92 -106.09,-106.08 l 0.1,-0.22 c 116.21,102.23 380.85,-169.3 380.85,-169.3"
         id="path68"
         inkscape:connector-curvature="0" /></clipPath><linearGradient
       x1="0"
       y1="0"
       x2="1"
       y2="0"
       gradientUnits="userSpaceOnUse"
       gradientTransform="matrix(0,2394.33,2394.33,0,8879.11,4769.19)"
       spreadMethod="pad"
       id="linearGradient70"><stop
         style="stop-opacity:1;stop-color:#69afce"
         offset="0"
         id="stop72" /><stop
         style="stop-opacity:1;stop-color:#2e3e9c"
         offset="0.994892"
         id="stop74" /><stop
         style="stop-opacity:1;stop-color:#2e3e9c"
         offset="1"
         id="stop76" /></linearGradient><clipPath
       clipPathUnits="userSpaceOnUse"
       id="clipPath84"><path
         d="m 7883.43,5669.42 0.24,0.35 c -42.26,42.14 -106.2,106.07 -106.2,106.07 -17.8,17.81 -37.14,33.07 -57.14,46.58 -1.29,0.81 -2.33,1.97 -3.38,2.92 -20.65,13.49 -42.49,24.67 -64.75,34 -1.07,0.45 -1.87,1.14 -3.03,1.5 -23.16,9.32 -47.04,16.3 -71.14,21.2 -0.47,0 -0.7,0.23 -0.94,0.23 -122.71,23.87 -254.64,-11.76 -349.78,-106.77 l -341.4,-341.5 -275.22,-275.27 -7.69,-7.68 c -42.74,-42.04 -268.17,-253.96 -373.06,-161.61 l -0.15,-0.25 c 41.25,-41.2 102.52,-102.47 105.3,-105.37 l 0.34,-0.34 c 19.06,-19.1 39.74,-35.86 61.53,-50.2 2.59,-1.62 5.07,-3.27 7.65,-4.91 19.12,-12.11 39.24,-22.33 59.92,-30.62 11.45,-4.58 22.77,-8.62 34.54,-12.13 12.21,-3.61 24.87,-6.75 37.34,-9.17 124.13,-24.14 254.73,12.01 349.75,107.03 l 530.13,530 86.41,86.53 12.71,12.7 c 53.78,51.92 267.07,245.78 368.02,156.71 z"
         id="path86"
         inkscape:connector-curvature="0" /></clipPath><linearGradient
       x1="0"
       y1="0"
       x2="1"
       y2="0"
       gradientUnits="userSpaceOnUse"
       gradientTransform="matrix(1167.27,1167.27,1167.27,-1167.27,6473.08,4745.83)"
       spreadMethod="pad"
       id="linearGradient88"><stop
         style="stop-opacity:1;stop-color:#69afce"
         offset="0"
         id="stop90" /><stop
         style="stop-opacity:1;stop-color:#2e3e9c"
         offset="0.994892"
         id="stop92" /><stop
         style="stop-opacity:1;stop-color:#2e3e9c"
         offset="1"
         id="stop94" /></linearGradient><clipPath
       clipPathUnits="userSpaceOnUse"
       id="clipPath102"><path
         d="m 6881.46,7049.4 529.87,-530.01 86.5,-86.51 c 0,0 264.8,-271.64 381.01,-169.31 l 0.1,-0.22 c -42.15,-42.27 -106.2,-106.07 -106.2,-106.07 -152.05,-151.72 -398.07,-151.61 -550.05,0.22 l -341.23,341.4 -275.51,275.36 -275.26,275.27 c 152.2,152.05 398.68,151.95 550.77,-0.13 z"
         id="path104"
         inkscape:connector-curvature="0" /></clipPath><linearGradient
       x1="0"
       y1="0"
       x2="1"
       y2="0"
       gradientUnits="userSpaceOnUse"
       gradientTransform="matrix(1167.23,-1167.23,-1167.23,-1167.23,6521.23,7240.07)"
       spreadMethod="pad"
       id="linearGradient106"><stop
         style="stop-opacity:1;stop-color:#69afce"
         offset="0"
         id="stop108" /><stop
         style="stop-opacity:1;stop-color:#2e3e9c"
         offset="0.994892"
         id="stop110" /><stop
         style="stop-opacity:1;stop-color:#2e3e9c"
         offset="1"
         id="stop112" /></linearGradient><clipPath
       clipPathUnits="userSpaceOnUse"
       id="clipPath120"><path
         d="m 5800.05,5968.41 c 0.15,0.24 0.23,0.35 0.48,0.58 l 805.39,805.39 c 0,0 264.7,271.52 380.86,169.42 l 4.06,-3.69 c -42.3,42.26 -109.9,109.87 -110,110 -152.05,151.58 -398.23,151.48 -550.03,-0.47 L 5250,5968.99 6335.57,4883.34 c 151.81,-151.85 398.08,-151.95 550.13,-0.35 0,0.11 63.85,63.91 106.09,106.07 l -0.1,0.23 c -116.21,-102.23 -380.85,169.3 -380.85,169.3"
         id="path122"
         inkscape:connector-curvature="0" /></clipPath><linearGradient
       x1="0"
       y1="0"
       x2="1"
       y2="0"
       gradientUnits="userSpaceOnUse"
       gradientTransform="matrix(0,-2394.33,-2394.33,0,6120.9,7163.7)"
       spreadMethod="pad"
       id="linearGradient124"><stop
         style="stop-opacity:1;stop-color:#69afce"
         offset="0"
         id="stop126" /><stop
         style="stop-opacity:1;stop-color:#2e3e9c"
         offset="0.994892"
         id="stop128" /><stop
         style="stop-opacity:1;stop-color:#2e3e9c"
         offset="1"
         id="stop130" /></linearGradient></defs><sodipodi:namedview
     pagecolor="#ffffff"
     bordercolor="#666666"
     borderopacity="1"
     objecttolerance="10"
     gridtolerance="10"
     guidetolerance="10"
     inkscape:pageopacity="0"
     inkscape:pageshadow="2"
     inkscape:window-width="1680"
     inkscape:window-height="1032"
     id="namedview4"
     showgrid="false"
     inkscape:snap-text-baseline="false"
     inkscape:zoom="0.18666667"
     inkscape:cx="105.9286"
     inkscape:cy="28.851587"
     inkscape:window-x="0"
     inkscape:window-y="18"
     inkscape:window-maximized="1"
     inkscape:current-layer="g12"
     fit-margin-top="0"
     fit-margin-left="0"
     fit-margin-right="0"
     fit-margin-bottom="0" /><g
     id="g10"
     inkscape:groupmode="layer"
     inkscape:label="ink_ext_XXXXXX"
     transform="matrix(1.25,0,0,-1.25,-84.25,895.46236)"><g
       id="g12"
       transform="scale(0.1,0.1)"><g
         id="g4260"><text
           transform="scale(0.80908615,-1.2359623)"
           style="font-style:normal;font-variant:normal;font-weight:normal;font-stretch:normal;font-size:571.7432251px;font-family:sans;-inkscape-font-specification:sans;writing-mode:lr-tb;fill:#ffffff;fill-opacity:1;fill-rule:nonzero;stroke:none"
           id="text18"
           x="6794.4492"
           y="-4060.771"><tspan
             x="6794.4492"
             y="-4060.771"
             sodipodi:role="line"
             id="tspan20">MERDEKA BERKARYA TANPA BATAS</tspan></text>
<text
           transform="scale(0.76987658,-1.2989095)"
           style="font-style:normal;font-variant:normal;font-weight:bold;font-stretch:normal;font-size:1067.53613281px;font-family:sans;-inkscape-font-specification:'sans Bold';writing-mode:lr-tb;fill:#ffffff;fill-opacity:1;fill-rule:nonzero;stroke:none"
           id="text22"
           x="7003.2417"
           y="-4487.6582"><tspan
             x="7003.2417"
             y="-4487.6582"
             sodipodi:role="line"
             id="tspan24"
             style="font-style:normal;font-variant:normal;font-weight:bold;font-stretch:normal;font-family:sans;-inkscape-font-specification:'sans Bold';fill:#ffffff;fill-opacity:1">DIKA KARYA TECH</tspan></text>
<g
           id="g3500"><g
             id="g26"
             transform="translate(-4576,0)"><g
               id="g28"
               clip-path="url(#clipPath30)"><path
                 d="m 7116.58,6263.46 -0.25,-0.34 c 42.27,-42.15 106.21,-106.08 106.21,-106.08 17.8,-17.81 37.14,-33.06 57.14,-46.58 1.29,-0.8 2.34,-1.97 3.38,-2.91 20.65,-13.49 42.49,-24.67 64.75,-34.01 1.07,-0.44 1.87,-1.14 3.03,-1.5 23.16,-9.32 47.04,-16.29 71.14,-21.2 0.47,0 0.69,-0.22 0.94,-0.22 122.71,-23.88 254.64,11.75 349.78,106.77 l 341.4,341.5 275.22,275.27 7.69,7.68 c 42.75,42.03 268.17,253.95 373.06,161.61 l 0.14,0.24 c -41.25,41.21 -102.51,102.48 -105.29,105.38 l -0.34,0.33 c -19.06,19.11 -39.74,35.87 -61.53,50.2 -2.58,1.63 -5.07,3.28 -7.65,4.92 -19.12,12.11 -39.24,22.33 -59.92,30.61 -11.45,4.58 -22.77,8.63 -34.54,12.13 -12.21,3.61 -24.88,6.76 -37.34,9.18 -124.13,24.13 -254.73,-12.01 -349.75,-107.04 l -530.14,-530 -86.4,-86.52 -12.71,-12.7 c -53.78,-51.92 -267.07,-245.79 -368.02,-156.72"
                 style="fill:url(#linearGradient34);fill-opacity:1;fill-rule:nonzero;stroke:none"
                 id="path42"
                 inkscape:connector-curvature="0" /></g></g><g
             id="g44"
             transform="translate(-4576,0)"><g
               id="g46"
               clip-path="url(#clipPath48)"><path
                 d="m 8118.54,4883.49 -529.86,530.01 -86.5,86.51 c 0,0 -264.79,271.64 -381.01,169.3 l -0.1,0.23 c 42.15,42.27 106.19,106.07 106.19,106.07 152.05,151.72 398.08,151.61 550.05,-0.22 l 341.23,-341.4 275.51,-275.37 275.27,-275.26 c -152.2,-152.05 -398.68,-151.95 -550.78,0.13"
                 style="fill:url(#linearGradient52);fill-opacity:1;fill-rule:nonzero;stroke:none"
                 id="path60"
                 inkscape:connector-curvature="0" /></g></g><g
             id="g62"
             transform="translate(-4576,0)"><g
               id="g64"
               clip-path="url(#clipPath66)"><path
                 d="m 9199.96,5964.48 c -0.15,-0.24 -0.23,-0.35 -0.49,-0.59 L 8394.08,5158.5 c 0,0 -264.69,-271.52 -380.85,-169.42 l -4.06,3.69 c 42.29,-42.25 109.9,-109.87 110,-109.99 152.05,-151.59 398.22,-151.48 550.03,0.47 L 9750,5963.89 8664.43,7049.55 c -151.8,151.84 -398.07,151.95 -550.12,0.35 0,-0.11 -63.85,-63.92 -106.09,-106.08 l 0.1,-0.22 c 116.21,102.23 380.85,-169.3 380.85,-169.3"
                 style="fill:url(#linearGradient70);fill-opacity:1;fill-rule:nonzero;stroke:none"
                 id="path78"
                 inkscape:connector-curvature="0" /></g></g><g
             id="g80"
             transform="translate(-4576,0)"><g
               id="g82"
               clip-path="url(#clipPath84)"><path
                 d="m 7883.43,5669.42 0.24,0.35 c -42.26,42.14 -106.2,106.07 -106.2,106.07 -17.8,17.81 -37.14,33.07 -57.14,46.58 -1.29,0.81 -2.33,1.97 -3.38,2.92 -20.65,13.49 -42.49,24.67 -64.75,34 -1.07,0.45 -1.87,1.14 -3.03,1.5 -23.16,9.32 -47.04,16.3 -71.14,21.2 -0.47,0 -0.7,0.23 -0.94,0.23 -122.71,23.87 -254.64,-11.76 -349.78,-106.77 l -341.4,-341.5 -275.22,-275.27 -7.69,-7.68 c -42.74,-42.04 -268.17,-253.96 -373.06,-161.61 l -0.15,-0.25 c 41.25,-41.2 102.52,-102.47 105.3,-105.37 l 0.34,-0.34 c 19.06,-19.1 39.74,-35.86 61.53,-50.2 2.59,-1.62 5.07,-3.27 7.65,-4.91 19.12,-12.11 39.24,-22.33 59.92,-30.62 11.45,-4.58 22.77,-8.62 34.54,-12.13 12.21,-3.61 24.87,-6.75 37.34,-9.17 124.13,-24.14 254.73,12.01 349.75,107.03 l 530.13,530 86.41,86.53 12.71,12.7 c 53.78,51.92 267.07,245.78 368.02,156.71"
                 style="fill:url(#linearGradient88);fill-opacity:1;fill-rule:nonzero;stroke:none"
                 id="path96"
                 inkscape:connector-curvature="0" /></g></g><g
             id="g98"
             transform="translate(-4576,0)"><g
               id="g100"
               clip-path="url(#clipPath102)"><path
                 d="m 6881.46,7049.4 529.87,-530.01 86.5,-86.51 c 0,0 264.8,-271.64 381.01,-169.31 l 0.1,-0.22 c -42.15,-42.27 -106.2,-106.07 -106.2,-106.07 -152.05,-151.72 -398.07,-151.61 -550.05,0.22 l -341.23,341.4 -275.51,275.36 -275.26,275.27 c 152.2,152.05 398.68,151.95 550.77,-0.13"
                 style="fill:url(#linearGradient106);fill-opacity:1;fill-rule:nonzero;stroke:none"
                 id="path114"
                 inkscape:connector-curvature="0" /></g></g><g
             id="g116"
             transform="translate(-4576,0)"><g
               id="g118"
               clip-path="url(#clipPath120)"><path
                 d="m 5800.05,5968.41 c 0.15,0.24 0.23,0.35 0.48,0.58 l 805.39,805.39 c 0,0 264.7,271.52 380.86,169.42 l 4.06,-3.69 c -42.3,42.26 -109.9,109.87 -110,110 -152.05,151.58 -398.23,151.48 -550.03,-0.47 L 5250,5968.99 6335.57,4883.34 c 151.81,-151.85 398.08,-151.95 550.13,-0.35 0,0.11 63.85,63.91 106.09,106.07 l -0.1,0.23 c -116.21,-102.23 -380.85,169.3 -380.85,169.3"
                 style="fill:url(#linearGradient124);fill-opacity:1;fill-rule:nonzero;stroke:none"
                 id="path132"
                 inkscape:connector-curvature="0" /></g></g></g></g></g></g></svg>